<?xml version="1.0" encoding="utf-8"?>
<svg xmlns="http://www.w3.org/2000/svg" xmlns:xlink="http://www.w3.org/1999/xlink" style="margin: auto; background: rgb(241, 242, 243) none repeat scroll 0% 0%; display: block; shape-rendering: auto;" width="200px" height="200px" viewBox="0 0 100 100" preserveAspectRatio="xMidYMid">
<g transform="rotate(0 50 50)">
  <rect x="48.5" y="35.5" rx="1.5" ry="1.6500000000000001" width="3" height="11" fill="#628d95">
    <animate attributeName="opacity" values="1;0" keyTimes="0;1" dur="0.641025641025641s" begin="-0.5608974358974359s" repeatCount="indefinite"></animate>
  </rect>
</g><g transform="rotate(45 50 50)">
  <rect x="48.5" y="35.5" rx="1.5" ry="1.6500000000000001" width="3" height="11" fill="#628d95">
    <animate attributeName="opacity" values="1;0" keyTimes="0;1" dur="0.641025641025641s" begin="-0.4807692307692307s" repeatCount="indefinite"></animate>
  </rect>
</g><g transform="rotate(90 50 50)">
  <rect x="48.5" y="35.5" rx="1.5" ry="1.6500000000000001" width="3" height="11" fill="#628d95">
    <animate attributeName="opacity" values="1;0" keyTimes="0;1" dur="0.641025641025641s" begin="-0.4006410256410256s" repeatCount="indefinite"></animate>
  </rect>
</g><g transform="rotate(135 50 50)">
  <rect x="48.5" y="35.5" rx="1.5" ry="1.6500000000000001" width="3" height="11" fill="#628d95">
    <animate attributeName="opacity" values="1;0" keyTimes="0;1" dur="0.641025641025641s" begin="-0.3205128205128205s" repeatCount="indefinite"></animate>
  </rect>
</g><g transform="rotate(180 50 50)">
  <rect x="48.5" y="35.5" rx="1.5" ry="1.6500000000000001" width="3" height="11" fill="#628d95">
    <animate attributeName="opacity" values="1;0" keyTimes="0;1" dur="0.641025641025641s" begin="-0.24038461538461536s" repeatCount="indefinite"></animate>
  </rect>
</g><g transform="rotate(225 50 50)">
  <rect x="48.5" y="35.5" rx="1.5" ry="1.6500000000000001" width="3" height="11" fill="#628d95">
    <animate attributeName="opacity" values="1;0" keyTimes="0;1" dur="0.641025641025641s" begin="-0.16025641025641024s" repeatCount="indefinite"></animate>
  </rect>
</g><g transform="rotate(270 50 50)">
  <rect x="48.5" y="35.5" rx="1.5" ry="1.6500000000000001" width="3" height="11" fill="#628d95">
    <animate attributeName="opacity" values="1;0" keyTimes="0;1" dur="0.641025641025641s" begin="-0.08012820512820512s" repeatCount="indefinite"></animate>
  </rect>
</g><g transform="rotate(315 50 50)">
  <rect x="48.5" y="35.5" rx="1.5" ry="1.6500000000000001" width="3" height="11" fill="#628d95">
    <animate attributeName="opacity" values="1;0" keyTimes="0;1" dur="0.641025641025641s" begin="0s" repeatCount="indefinite"></animate>
  </rect>
</g>
<!-- [ldio] generated by https://loading.io/ --></svg>